{
  "accessors": [
    {
      "bufferView": 2,
      "componentType": 5126,
      "count": 1355,
      "max": [
        49.156455993652344,
        14.367210388183594,
        11.091246604919434
      ],
      "min": [
        -49.288291931152344,
        -0.03956777974963188,
        -11.0808687210083
      ],
      "type": "VEC3"
    },
    {
      "bufferView": 2,
      "byteOffset": 16260,
      "componentType": 5126,
      "count": 1355,
      "type": "VEC3"
    },
    {
      "bufferView": 3,
      "componentType": 5126,
      "count": 1355,
      "type": "VEC4"
    },
    {
      "bufferView": 1,
      "componentType": 5126,
      "count": 1355,
      "type": "VEC2"
    },
    {
      "bufferView": 1,
      "byteOffset": 10840,
      "componentType": 5126,
      "count": 1355,
      "type": "VEC2"
    },
    {
      "bufferView": 0,
      "componentType": 5125,
      "count": 4092,
      "type": "SCALAR"
    }
  ],
  "asset": {
    "generator": "fab-model-conversion",
    "version": "2.0"
  },
  "bufferViews": [
    {
      "buffer": 0,
      "byteLength": 16368,
      "target": 34963
    },
    {
      "buffer": 0,
      "byteLength": 21680,
      "byteOffset": 16368,
      "byteStride": 8,
      "target": 34962
    },
    {
      "buffer": 0,
      "byteLength": 32520,
      "byteOffset": 38048,
      "byteStride": 12,
      "target": 34962
    },
    {
      "buffer": 0,
      "byteLength": 21680,
      "byteOffset": 70568,
      "byteStride": 16,
      "target": 34962
    }
  ],
  "buffers": [
    {
      "byteLength": 92248,
      "uri": "Rusty_Shovel_uddjeelqx_Low.bin"
    }
  ],
  "images": [
    {
      "uri": "textures/Rusty_Shovel_uddjeelqx_Low_1K_albedo.jpeg"
    },
    {
      "uri": "textures/Rusty_Shovel_uddjeelqx_Low_1K_orm.png"
    },
    {
      "uri": "textures/Rusty_Shovel_uddjeelqx_Low_1K_normal.jpeg"
    }
  ],
  "materials": [
    {
      "doubleSided": true,
      "name": "Rusty_Shovel_uddjeelqx_Low",
      "normalTexture": {
        "index": 2
      },
      "occlusionTexture": {
        "index": 1
      },
      "pbrMetallicRoughness": {
        "baseColorTexture": {
          "index": 0
        },
        "metallicFactor": 0.0,
        "metallicRoughnessTexture": {
          "index": 1
        }
      }
    }
  ],
  "meshes": [
    {
      "name": "uddjeelqx_LOD0_TIER3_000_MatID_1_0",
      "primitives": [
        {
          "attributes": {
            "NORMAL": 1,
            "POSITION": 0,
            "TANGENT": 2,
            "TEXCOORD_0": 3,
            "TEXCOORD_1": 4
          },
          "indices": 5,
          "material": 0,
          "mode": 4
        }
      ]
    }
  ],
  "nodes": [
    {
      "children": [
        1
      ],
      "matrix": [
        1.0,
        0.0,
        0.0,
        0.0,
        0.0,
        2.220446049250313e-16,
        -1.0,
        0.0,
        0.0,
        1.0,
        2.220446049250313e-16,
        0.0,
        0.0,
        0.0,
        0.0,
        1.0
      ],
      "name": "Sketchfab_model"
    },
    {
      "children": [
        2
      ],
      "matrix": [
        0.009999999776482582,
        0.0,
        0.0,
        0.0,
        0.0,
        0.0,
        0.009999999776482582,
        0.0,
        0.0,
        -0.009999999776482582,
        0.0,
        0.0,
        0.0,
        0.0,
        0.0,
        1.0
      ],
      "name": "Rusty_Shovel_uddjeelqx_Low.fbx"
    },
    {
      "children": [
        3
      ],
      "name": "RootNode"
    },
    {
      "children": [
        4
      ],
      "name": "uddjeelqx_LOD0_TIER3_000"
    },
    {
      "mesh": 0,
      "name": "uddjeelqx_LOD0_TIER3_000_MatID_1_0"
    }
  ],
  "samplers": [
    {
      "magFilter": 9729,
      "minFilter": 9987,
      "wrapS": 10497,
      "wrapT": 10497
    }
  ],
  "scene": 0,
  "scenes": [
    {
      "name": "Sketchfab_Scene",
      "nodes": [
        0
      ]
    }
  ],
  "textures": [
    {
      "sampler": 0,
      "source": 0
    },
    {
      "sampler": 0,
      "source": 1
    },
    {
      "sampler": 0,
      "source": 2
    }
  ]
}
